# xmcd
#
# Track frame offsets:
#	150
#	15057
#	40292
#	60392
#	75747
#	101585
#	125285
#	136845
#	156077
#	182120
#
# Disc length: 2597 seconds
#
# Revision: 0
# Processed by: cddbd v1.5.2PL0 Copyright (c) Steve Scherf et al.
# Submitted via: EasyCDDAExtractor 2010.6.0.0
#
DISCID=6f0a230a
DTITLE=Gwen Hughes - Torch Life
DYEAR=1900
DGENRE=
TTITLE0=So and So
TTITLE1=Promises Collide
TTITLE2=Can't Let It Out
TTITLE3=Did It Really Happen
TTITLE4=Me 4 Yourself
TTITLE5=Soft Touch
TTITLE6=Reassurance
TTITLE7=Every Breath You Take
TTITLE8=Saying I Don't Know
TTITLE9=He's Got You
EXTD=
EXTT0=
EXTT1=
EXTT2=
EXTT3=
EXTT4=
EXTT5=
EXTT6=
EXTT7=
EXTT8=
EXTT9=
PLAYORDER=
